<?xml version="1.0" encoding="UTF-8"?>
<svg xmlns="http://www.w3.org/2000/svg" id="Layer_1" data-name="Layer 1" viewBox="0 0 1889.55 299.69">
  <defs>
    <style>
      .cls-1 {
        fill: #1eb4e6;
      }

      .cls-2 {
        fill: #0632a0;
      }

      .cls-3 {
        fill: #3cc85a;
      }
    </style>
  </defs>
  <polygon class="cls-1" points="198.81 46.3 107.59 204.67 199.79 116.73 304.91 299.69 345.11 299.69 198.81 46.3"></polygon>
  <polygon class="cls-3" points="200.76 141.25 231.07 264.99 20.06 264.98 0 299.69 292.98 299.69 200.76 141.25"></polygon>
  <polygon class="cls-2" points="209.1 254.09 86.79 218.41 192.6 35.42 172.18 0 25.53 254.13 209.1 254.09"></polygon>
  <g>
    <polygon class="cls-2" points="751.46 265.26 751.46 184.7 657.95 85.23 713.82 85.23 775.64 154.39 837.64 85.23 886.87 85.23 793.7 183.68 793.7 265.26 751.46 265.26"></polygon>
    <path class="cls-2" d="m924.14,265.26V85.23h28.61l126.73,106.11c4.32,3.53,8.11,6.84,11.41,9.97,3.3,3.13,6.3,6.33,9.03,9.62-.69-10.1-1.14-17.26-1.37-21.46-.24-4.2-.34-7.44-.34-9.71v-94.53h37.64v180.03h-28.61l-132.18-111.22c-3.18-2.84-5.96-5.39-8.34-7.66-2.38-2.27-4.6-4.6-6.64-6.98.57,5.57.99,10.82,1.28,15.76.28,4.94.42,9.22.42,12.86v97.25h-37.65Z"></path>
    <polygon class="cls-2" points="1304.92 117.42 1304.92 265.26 1263.02 265.26 1263.02 117.42 1180.42 117.42 1180.42 85.23 1387.87 85.23 1387.87 117.42 1304.92 117.42"></polygon>
    <path class="cls-2" d="m1383.24,265.26l101.85-180.03h40.38l103.21,180.03h-47.01l-21.63-39.34h-114.12l-20.95,39.34h-41.73Zm80.56-71.88h78.86l-38.83-73.24-40.03,73.24Z"></path>
    <polygon class="cls-2" points="1656.55 265.26 1741.89 172.78 1655.03 85.23 1710.55 85.23 1768.12 146.38 1822.79 85.23 1870.99 85.23 1792.47 168.01 1889.55 265.26 1832.67 265.26 1766.75 195.44 1705.95 265.26 1656.55 265.26"></polygon>
    <path class="cls-2" d="m615.77,164.44c-6.19-6.02-18.08-9.03-35.68-9.03h-112.25v-38.66h113.81l6.42,11.56h34.6v-3.56c0-14.76-3.21-25.04-9.62-30.83-6.42-5.79-18.09-8.68-35-8.68h-102.2c-17.49,0-29.29,3.01-35.43,9.03-6.13,6.02-9.2,17.21-9.2,33.56v19.92c0,16.35,3.07,27.54,9.2,33.55,6.13,6.02,17.94,9.02,35.43,9.02h112.24v41.05h-113.09l-7.4-12.63h-37.22v3.94c0,16.35,3.09,27.54,9.28,33.55,6.19,6.03,18.08,9.03,35.68,9.03h104.75c17.6,0,29.49-3,35.68-9.03,6.19-6.02,9.28-17.2,9.28-33.55v-24.69c0-16.36-3.1-27.53-9.28-33.55Z"></path>
  </g>
</svg>
